<svg width="71" height="32" viewBox="0 0 71 32" fill="none" xmlns="http://www.w3.org/2000/svg">
    <path fill-rule="evenodd" clip-rule="evenodd"
          d="M54.647 31.6147C51.152 31.6147 47.6352 30.3636 43.8959 27.7898C40.2813 25.3082 36.8823 21.8786 33.5945 18.5619C30.0196 14.9547 26.3231 11.2251 22.498 8.87906C20.1243 7.424 17.9847 6.71624 15.9584 6.71624C12.1314 6.71624 9.23512 8.37584 7.80232 11.3907C7.17867 12.7134 6.8467 14.2776 6.8467 15.9071C6.8467 17.2116 7.03987 18.4282 7.41982 19.5231C8.62746 23.0438 11.5685 24.8985 15.9277 24.8985C17.9381 24.8985 20.1007 24.0778 22.5383 22.3893C24.156 21.2643 25.9483 19.7246 28.1723 17.5485L33.0073 22.304C30.4718 24.7849 28.4627 26.5023 26.4932 27.872C22.855 30.3918 19.4009 31.6147 15.9277 31.6147C8.67415 31.6147 3.06963 27.8996 0.935153 21.6772C0.315982 19.8952 0 17.9501 0 15.9071C0 13.2737 0.536018 10.8022 1.5927 8.56157C4.18004 3.1178 9.41422 0 15.9584 0C19.3056 0 22.6324 1.04157 26.1274 3.18431C30.6547 5.96141 34.6448 9.98714 38.5037 13.8798C41.7096 17.115 44.7377 20.17 47.8252 22.2896C50.3767 24.0458 52.6072 24.8985 54.647 24.8985C59.1008 24.8985 62.0687 23.045 63.2303 19.5382C63.5731 18.4998 63.7478 17.3421 63.7478 16.1016C63.7478 14.3467 63.3947 12.6896 62.7269 11.3085C61.2768 8.30306 58.4835 6.71624 54.647 6.71624C52.3922 6.71624 50.0793 7.45726 47.5777 8.98133C46.0035 9.94259 44.3238 11.2333 42.4452 12.9261C42.325 13.0347 42.2085 13.1407 42.0915 13.2474L37.4196 8.33757C37.5513 8.2171 37.6837 8.09663 37.8161 7.97804C40.0088 6.00157 42.0205 4.46369 43.9631 3.2778C47.5834 1.07169 51.0778 0 54.647 0C61.1284 0 66.3287 3.07325 68.9141 8.43294C70.013 10.7056 70.5945 13.3578 70.5945 16.1016C70.5945 18.0449 70.3079 19.8984 69.7431 21.61C67.6675 27.8764 62.0246 31.6147 54.647 31.6147Z"
          fill="#DD671A"/>
</svg>
