<svg width="467" height="359" viewBox="0 0 467 359" fill="none" xmlns="http://www.w3.org/2000/svg">
<line x1="67.5" y1="160" x2="67.5" y2="204" stroke="#3F77E6" stroke-width="3"/>
<path d="M193.398 1H296.347C297.92 1 299.207 2.28686 299.207 3.8597V141.125C299.207 142.698 297.92 143.985 296.347 143.985H193.398C191.825 143.985 190.538 142.698 190.538 141.125V3.8597C190.538 2.28686 191.825 1 193.398 1Z" fill="white"/>
<mask id="mask0" mask-type="alpha" maskUnits="userSpaceOnUse" x="190" y="1" width="110" height="143">
<path d="M193.398 1H296.347C297.92 1 299.207 2.28686 299.207 3.8597V141.125C299.207 142.698 297.92 143.985 296.347 143.985H193.398C191.825 143.985 190.538 142.698 190.538 141.125V3.8597C190.538 2.28686 191.825 1 193.398 1Z" fill="white"/>
</mask>
<g mask="url(#mask0)">
<path d="M233.434 78.2118H197.688V83.9312H233.434V78.2118Z" fill="#9B9B9B"/>
<path d="M249.163 68.2029H197.688V73.9222H249.163V68.2029Z" fill="#9B9B9B"/>
<path d="M233.434 88.2211H197.688V93.9405H233.434V88.2211Z" fill="#9B9B9B"/>
<path d="M233.434 98.23H197.688V103.949H233.434V98.23Z" fill="#9B9B9B"/>
<path d="M198.403 114.673H291.343" stroke="#9B9B9B" stroke-width="3" stroke-linecap="square"/>
<path d="M198.403 60.3387H291.343" stroke="#9B9B9B" stroke-width="3" stroke-linecap="square"/>
</g>
<mask id="mask1" mask-type="alpha" maskUnits="userSpaceOnUse" x="190" y="1" width="110" height="143">
<path d="M193.398 1H296.347C297.92 1 299.207 2.28686 299.207 3.8597V141.125C299.207 142.698 297.92 143.985 296.347 143.985H193.398C191.825 143.985 190.538 142.698 190.538 141.125V3.8597C190.538 2.28686 191.825 1 193.398 1Z" fill="white"/>
</mask>
<g mask="url(#mask1)">
<path d="M219.137 121.108H197.689V126.827H219.137V121.108Z" fill="#9B9B9B"/>
<path d="M219.136 131.116H197.688V136.835H219.136V131.116Z" fill="#9B9B9B"/>
</g>
<mask id="mask2" mask-type="alpha" maskUnits="userSpaceOnUse" x="190" y="1" width="110" height="143">
<path d="M193.398 1H296.347C297.92 1 299.207 2.28686 299.207 3.8597V141.125C299.207 142.698 297.92 143.985 296.347 143.985H193.398C191.825 143.985 190.538 142.698 190.538 141.125V3.8597C190.538 2.28686 191.825 1 193.398 1Z" fill="white"/>
</mask>
<g mask="url(#mask2)">
<path d="M277.759 42.4661H197.688V53.9049H277.759V42.4661Z" fill="#9B9B9B"/>
</g>
<mask id="mask3" mask-type="alpha" maskUnits="userSpaceOnUse" x="190" y="1" width="110" height="143">
<path d="M193.398 1H296.347C297.92 1 299.207 2.28686 299.207 3.8597V141.125C299.207 142.698 297.92 143.985 296.347 143.985H193.398C191.825 143.985 190.538 142.698 190.538 141.125V3.8597C190.538 2.28686 191.825 1 193.398 1Z" fill="white"/>
</mask>
<g mask="url(#mask3)">
<path d="M292.058 42.4661H280.619V53.9049H292.058V42.4661Z" fill="#9B9B9B"/>
</g>
<mask id="mask4" mask-type="alpha" maskUnits="userSpaceOnUse" x="190" y="1" width="110" height="143">
<path d="M193.398 1H296.347C297.92 1 299.207 2.28686 299.207 3.8597V141.125C299.207 142.698 297.92 143.985 296.347 143.985H193.398C191.825 143.985 190.538 142.698 190.538 141.125V3.8597C190.538 2.28686 191.825 1 193.398 1Z" fill="white"/>
</mask>
<g mask="url(#mask4)">
<path d="M292.057 121.108H227.714V152.564H292.057V121.108Z" fill="#9B9B9B"/>
</g>
<mask id="mask5" mask-type="alpha" maskUnits="userSpaceOnUse" x="190" y="1" width="110" height="143">
<path d="M193.398 1H296.347C297.92 1 299.207 2.28686 299.207 3.8597V141.125C299.207 142.698 297.92 143.985 296.347 143.985H193.398C191.825 143.985 190.538 142.698 190.538 141.125V3.8597C190.538 2.28686 191.825 1 193.398 1Z" fill="white"/>
</mask>
<g mask="url(#mask5)">
<path d="M250.592 145.271C251.879 144.127 252.737 142.555 252.737 140.696C252.737 137.407 250.02 134.69 246.732 134.69C243.443 134.69 240.583 137.407 240.583 140.696C240.583 142.555 241.441 144.127 242.728 145.271C237.724 148.846 237.724 158.712 237.724 158.712H255.454C255.454 158.712 255.454 148.846 250.592 145.271Z" fill="#9B9B9B" stroke="white" stroke-width="3"/>
<path d="M277.902 146.702C279.046 145.701 279.761 144.271 279.761 142.698C279.761 139.695 277.473 137.265 274.614 137.265C271.754 137.265 269.18 139.695 269.18 142.698C269.18 144.271 269.895 145.844 271.039 146.702C266.892 149.847 266.892 158.712 266.892 158.712H282.049C282.049 158.712 282.049 149.847 277.902 146.702Z" fill="#9B9B9B" stroke="white" stroke-width="3"/>
<path d="M269.038 144.128C270.753 142.555 271.897 140.41 271.897 137.836C271.897 133.261 268.18 129.543 263.604 129.543C259.029 129.543 255.311 133.261 255.311 137.836C255.311 140.267 256.455 142.555 258.171 144.128C251.593 148.989 251.593 162.573 251.593 162.573H275.615C275.758 162.573 275.758 148.989 269.038 144.128Z" fill="#9B9B9B" stroke="white" stroke-width="3"/>
</g>
<mask id="mask6" mask-type="alpha" maskUnits="userSpaceOnUse" x="190" y="1" width="110" height="143">
<path d="M193.398 1H296.347C297.92 1 299.207 2.28686 299.207 3.8597V141.125C299.207 142.698 297.92 143.985 296.347 143.985H193.398C191.825 143.985 190.538 142.698 190.538 141.125V3.8597C190.538 2.28686 191.825 1 193.398 1Z" fill="white"/>
</mask>
<g mask="url(#mask6)">
<path d="M320.655 -13.2982H169.091V35.3167H320.655V-13.2982Z" fill="#F2F2F2"/>
</g>
<mask id="mask7" mask-type="alpha" maskUnits="userSpaceOnUse" x="190" y="1" width="110" height="143">
<path d="M193.398 1H296.347C297.92 1 299.207 2.28686 299.207 3.8597V141.125C299.207 142.698 297.92 143.985 296.347 143.985H193.398C191.825 143.985 190.538 142.698 190.538 141.125V3.8597C190.538 2.28686 191.825 1 193.398 1Z" fill="white"/>
</mask>
<g mask="url(#mask7)">
<path d="M274.185 101.233L270.753 105.093L268.894 100.232L264.319 102.377L264.462 97.2291L259.314 97.3721L261.459 92.7966L256.598 90.9378L260.458 87.5061L256.598 84.0745L261.459 82.2157L259.314 77.6402L264.462 77.7831L264.319 72.6357L268.894 74.7805L270.753 69.919L274.185 73.7796L277.617 69.919L279.475 74.7805L284.051 72.6357L283.908 77.7831L289.055 77.6402L286.911 82.2157L291.772 84.0745L287.911 87.5061L291.772 90.9378L286.911 92.7966L289.055 97.3721L283.908 97.2291L284.051 102.377L279.475 100.232L277.617 105.093L274.185 101.233Z" fill="#9B9B9B"/>
<path d="M193.398 1H296.347C297.92 1 299.207 2.28686 299.207 3.8597V141.125C299.207 142.698 297.92 143.985 296.347 143.985H193.398C191.825 143.985 190.538 142.698 190.538 141.125V3.8597C190.538 2.28686 191.825 1 193.398 1Z" stroke="#9B9B9B" stroke-width="3"/>
</g>
<path d="M361.123 1H433.147C434.537 1 435.674 2.13723 435.674 3.52718V105.878C435.674 107.268 434.537 108.405 433.147 108.405H361.123C359.733 108.405 358.595 107.268 358.595 105.878V3.52718C358.595 2.13723 359.733 1 361.123 1Z" fill="white" stroke="#9B9B9B" stroke-width="2"/>
<mask id="mask8" mask-type="alpha" maskUnits="userSpaceOnUse" x="358" y="1" width="78" height="108">
<path d="M361.123 1H433.147C434.537 1 435.674 2.13723 435.674 3.52718V105.878C435.674 107.268 434.537 108.405 433.147 108.405H361.123C359.733 108.405 358.595 107.268 358.595 105.878V3.52718C358.595 2.13723 359.733 1 361.123 1Z" fill="white"/>
</mask>
<g mask="url(#mask8)">
<path d="M384.878 66.4537H388.037V67.8436H384.878V72.898H383.236V67.8436H373.759V66.9591L383.109 52.8069H384.878V66.4537ZM375.78 66.4537H383.236V54.955L382.477 56.2186L375.78 66.4537ZM402.568 64.5583C402.568 67.4646 402.063 69.6127 401.052 71.0026C400.041 72.5189 398.525 73.2771 396.377 73.2771C394.355 73.2771 392.839 72.5189 391.828 71.129C390.817 69.739 390.185 67.5909 390.185 64.811V61.1466C390.185 58.3667 390.691 56.2186 391.828 54.7023C392.965 53.186 394.482 52.5542 396.503 52.5542C398.525 52.5542 400.041 53.3124 401.052 54.7023C402.063 56.0923 402.695 58.2404 402.695 60.8939V64.5583H402.568ZM400.926 60.8939C400.926 58.6195 400.547 56.8504 399.789 55.7132C399.03 54.576 397.893 53.9442 396.377 53.9442C394.861 53.9442 393.723 54.576 392.965 55.7132C392.207 56.8504 391.828 58.6195 391.828 60.7676V64.6847C391.828 66.9591 392.207 68.7282 392.965 69.9917C393.723 71.2553 394.861 71.7608 396.377 71.7608C397.893 71.7608 399.03 71.129 399.789 69.9917C400.547 68.8545 400.926 67.0855 400.926 64.811V60.8939ZM416.342 66.4537H419.501V67.8436H416.342V72.898H414.699V67.8436H405.222V66.9591L414.573 52.8069H416.342V66.4537ZM407.244 66.4537H414.699V54.955L413.941 56.2186L407.244 66.4537Z" fill="#9B9B9B"/>
</g>
<mask id="mask9" mask-type="alpha" maskUnits="userSpaceOnUse" x="358" y="1" width="78" height="108">
<path d="M361.123 1H433.147C434.537 1 435.674 2.13723 435.674 3.52718V105.878C435.674 107.268 434.537 108.405 433.147 108.405H361.123C359.733 108.405 358.595 107.268 358.595 105.878V3.52718C358.595 2.13723 359.733 1 361.123 1Z" fill="white"/>
</mask>
<g mask="url(#mask9)">
<path d="M464.737 -11.6355H330.797V31.3265H464.737V-11.6355Z" fill="#F1F1F1"/>
</g>
<mask id="mask10" mask-type="alpha" maskUnits="userSpaceOnUse" x="358" y="1" width="78" height="108">
<path d="M361.123 1H433.147C434.537 1 435.674 2.13723 435.674 3.52718V105.878C435.674 107.268 434.537 108.405 433.147 108.405H361.123C359.733 108.405 358.595 107.268 358.595 105.878V3.52718C358.595 2.13723 359.733 1 361.123 1Z" fill="white"/>
</mask>
<g mask="url(#mask10)">
<path d="M410.403 85.1555H385.005V89.1989H410.403V85.1555Z" fill="#9B9B9B"/>
<path d="M361.123 1H433.147C434.537 1 435.674 2.13723 435.674 3.52718V105.878C435.674 107.268 434.537 108.405 433.147 108.405H361.123C359.733 108.405 358.595 107.268 358.595 105.878V3.52718C358.595 2.13723 359.733 1 361.123 1Z" stroke="#9B9B9B" stroke-width="2"/>
</g>
<path d="M153.389 90.4623L165.014 79.8481L153.389 69.234V74.5411L157.053 78.0791H139.995V81.8699H157.053L153.389 85.1552V90.4623Z" fill="#9B9B9B"/>
<path d="M330.291 90.4623L341.916 79.8481L330.291 69.234V74.5411L333.956 78.0791H316.897V81.8699H333.956L330.291 85.1552V90.4623Z" fill="#9B9B9B"/>
<path d="M198.403 12.4391C199.587 12.4391 200.547 11.4789 200.547 10.2944C200.547 9.10985 199.587 8.1496 198.403 8.1496C197.218 8.1496 196.258 9.10985 196.258 10.2944C196.258 11.4789 197.218 12.4391 198.403 12.4391Z" fill="#9B9B9B"/>
<path d="M205.551 12.4388C206.736 12.4388 207.696 11.4786 207.696 10.2941C207.696 9.10954 206.736 8.14929 205.551 8.14929C204.367 8.14929 203.406 9.10954 203.406 10.2941C203.406 11.4786 204.367 12.4388 205.551 12.4388Z" fill="#9B9B9B"/>
<path d="M212.701 12.4388C213.886 12.4388 214.846 11.4786 214.846 10.2941C214.846 9.10954 213.886 8.14929 212.701 8.14929C211.517 8.14929 210.557 9.10954 210.557 10.2941C210.557 11.4786 211.517 12.4388 212.701 12.4388Z" fill="#9B9B9B"/>
<path d="M292.057 15.2984H220.565V28.167H292.057V15.2984Z" fill="white" stroke="#979797"/>
<path d="M264.891 19.5883H224.855V23.8778H264.891V19.5883Z" fill="#9B9B9B"/>
<path d="M200.548 26.4514L196.544 22.4479L200.548 18.4443V26.4514Z" fill="#9B9B9B"/>
<path d="M205.98 26.3083L209.984 22.3047L205.98 18.1581V26.3083Z" fill="#9B9B9B"/>
<path d="M365.546 11.1085C366.592 11.1085 367.441 10.2599 367.441 9.21307C367.441 8.16628 366.592 7.31769 365.546 7.31769C364.499 7.31769 363.65 8.16628 363.65 9.21307C363.65 10.2599 364.499 11.1085 365.546 11.1085Z" fill="#9B9B9B"/>
<path d="M371.864 11.1083C372.911 11.1083 373.759 10.2597 373.759 9.21295C373.759 8.16616 372.911 7.31757 371.864 7.31757C370.817 7.31757 369.968 8.16616 369.968 9.21295C369.968 10.2597 370.817 11.1083 371.864 11.1083Z" fill="#9B9B9B"/>
<path d="M378.181 11.1083C379.228 11.1083 380.077 10.2597 380.077 9.21295C380.077 8.16616 379.228 7.31757 378.181 7.31757C377.134 7.31757 376.286 8.16616 376.286 9.21295C376.286 10.2597 377.134 11.1083 378.181 11.1083Z" fill="#9B9B9B"/>
<path d="M429.356 13.6356H383.867V25.0079H429.356V13.6356Z" fill="white" stroke="#979797"/>
<path d="M423.039 17.4265H387.658V21.2173H423.039V17.4265Z" fill="#9B9B9B"/>
<path d="M367.441 23.4916L363.903 19.9535L367.441 16.4155V23.4916Z" fill="#9B9B9B"/>
<path d="M372.242 23.3652L375.78 19.8271L372.242 16.1627V23.3652Z" fill="#9B9B9B"/>
<path d="M4.79085 2.26331H126.095C127.485 2.26331 128.622 3.40053 128.622 4.79048V155.157C128.622 156.547 127.485 157.685 126.095 157.685H4.79085C3.4009 157.685 2.26367 156.547 2.26367 155.157V4.79048C2.26367 3.40053 3.4009 2.26331 4.79085 2.26331Z" fill="white" stroke="white" stroke-width="2"/>
<mask id="mask11" mask-type="alpha" maskUnits="userSpaceOnUse" x="1" y="1" width="129" height="158">
<path d="M4.79085 2.26331H126.095C127.485 2.26331 128.622 3.40053 128.622 4.79048V155.157C128.622 156.547 127.485 157.685 126.095 157.685H4.79085C3.4009 157.685 2.26367 156.547 2.26367 155.157V4.79048C2.26367 3.40053 3.4009 2.26331 4.79085 2.26331Z" fill="white" stroke="white" stroke-width="2"/>
</mask>
<g mask="url(#mask11)">
<path d="M120.283 39.6661H10.6035V56.3454H120.283V39.6661Z" fill="#9B9B9B" stroke="white" stroke-width="2"/>
<path d="M133.677 -12.8992H-0.263672V30.0628H133.677V-12.8992Z" fill="#F1F1F1" stroke="white" stroke-width="2"/>
</g>
<mask id="mask12" mask-type="alpha" maskUnits="userSpaceOnUse" x="1" y="1" width="129" height="158">
<path d="M4.79085 2.26331H126.095C127.485 2.26331 128.622 3.40053 128.622 4.79048V155.157C128.622 156.547 127.485 157.685 126.095 157.685H4.79085C3.4009 157.685 2.26367 156.547 2.26367 155.157V4.79048C2.26367 3.40053 3.4009 2.26331 4.79085 2.26331Z" fill="white" stroke="white" stroke-width="2"/>
</mask>
<g mask="url(#mask12)">
<path d="M73.7829 121.168H10.6035V176.007H73.7829V121.168Z" fill="#9B9B9B" stroke="white" stroke-width="2"/>
</g>
<mask id="mask13" mask-type="alpha" maskUnits="userSpaceOnUse" x="1" y="1" width="129" height="158">
<path d="M4.79085 2.26331H126.095C127.485 2.26331 128.622 3.40053 128.622 4.79048V155.157C128.622 156.547 127.485 157.685 126.095 157.685H4.79085C3.4009 157.685 2.26367 156.547 2.26367 155.157V4.79048C2.26367 3.40053 3.4009 2.26331 4.79085 2.26331Z" fill="white" stroke="white" stroke-width="2"/>
</mask>
<g mask="url(#mask13)">
<path d="M52.1485 61.2529H10.5764V67.9499H52.1485V61.2529Z" fill="#9B9B9B" stroke="white" stroke-width="2"/>
<path d="M52.1485 72.8782H10.5764V79.5753H52.1485V72.8782Z" fill="#9B9B9B" stroke="white" stroke-width="2"/>
<path d="M52.1485 84.5027H10.5764V91.1997H52.1485V84.5027Z" fill="#9B9B9B" stroke="white" stroke-width="2"/>
<path d="M52.1485 96.1283H10.5764V102.825H52.1485V96.1283Z" fill="#9B9B9B" stroke="white" stroke-width="2"/>
</g>
<mask id="mask14" mask-type="alpha" maskUnits="userSpaceOnUse" x="1" y="1" width="129" height="158">
<path d="M4.79085 2.26331H126.095C127.485 2.26331 128.622 3.40053 128.622 4.79048V155.157C128.622 156.547 127.485 157.685 126.095 157.685H4.79085C3.4009 157.685 2.26367 156.547 2.26367 155.157V4.79048C2.26367 3.40053 3.4009 2.26331 4.79085 2.26331Z" fill="white" stroke="white" stroke-width="2"/>
</mask>
<g mask="url(#mask14)">
<path d="M11.3611 111.943H119.398" stroke="white" stroke-width="2" stroke-linecap="square"/>
</g>
<mask id="mask15" mask-type="alpha" maskUnits="userSpaceOnUse" x="1" y="1" width="129" height="158">
<path d="M4.79085 2.26331H126.095C127.485 2.26331 128.622 3.40053 128.622 4.79048V155.157C128.622 156.547 127.485 157.685 126.095 157.685H4.79085C3.4009 157.685 2.26367 156.547 2.26367 155.157V4.79048C2.26367 3.40053 3.4009 2.26331 4.79085 2.26331Z" fill="white" stroke="white" stroke-width="2"/>
</mask>
<g mask="url(#mask15)">
<path d="M120.316 121.108H78.7444V127.805H120.316V121.108Z" fill="#9B9B9B" stroke="white" stroke-width="2"/>
<path d="M120.316 132.733H78.7441V139.43H120.316V132.733Z" fill="#9B9B9B" stroke="white" stroke-width="2"/>
<path d="M120.316 144.358H78.7441V151.055H120.316V144.358Z" fill="#9B9B9B" stroke="white" stroke-width="2"/>
</g>
<mask id="mask16" mask-type="alpha" maskUnits="userSpaceOnUse" x="1" y="1" width="129" height="158">
<path d="M4.79085 2.26331H126.095C127.485 2.26331 128.622 3.40053 128.622 4.79048V155.157C128.622 156.547 127.485 157.685 126.095 157.685H4.79085C3.4009 157.685 2.26367 156.547 2.26367 155.157V4.79048C2.26367 3.40053 3.4009 2.26331 4.79085 2.26331Z" fill="white" stroke="#9B9B9B" stroke-width="2"/>
</mask>
<g mask="url(#mask16)">
<path d="M120.283 61.2737H57.1033V102.846H120.283V61.2737Z" fill="#9B9B9B" stroke="white" stroke-width="2"/>
</g>
<mask id="mask17" mask-type="alpha" maskUnits="userSpaceOnUse" x="56" y="60" width="66" height="44">
<path d="M120.283 61.2737H57.1033V102.846H120.283V61.2737Z" fill="white" stroke="white" stroke-width="2"/>
</mask>
<g mask="url(#mask17)">
<path d="M75.5984 88.3733C77.2411 86.9834 78.3783 84.8353 78.3783 82.4345C78.3783 78.0119 74.8403 74.4738 70.4177 74.4738C65.9952 74.4738 62.4571 78.0119 62.4571 82.4345C62.4571 84.8353 63.468 86.9834 65.237 88.3733C58.7927 93.0486 58.7927 106.19 58.7927 106.19H82.0427C82.0427 106.19 82.0427 93.0486 75.5984 88.3733Z" fill="#9B9B9B" stroke="white" stroke-width="2"/>
<path d="M111.484 90.2683C112.874 89.0047 113.885 87.1093 113.885 84.9612C113.885 81.0441 110.853 77.8851 107.062 77.8851C103.271 77.8851 100.239 81.0441 100.239 84.9612C100.239 87.1093 101.123 89.0047 102.639 90.2683C97.0796 94.4381 97.0796 106.063 97.0796 106.063H117.044C117.044 106.189 117.044 94.4381 111.484 90.2683Z" fill="#9B9B9B" stroke="white" stroke-width="2"/>
<path d="M99.9854 86.8569C102.26 84.8351 103.776 81.9289 103.776 78.6435C103.65 72.7047 98.8482 67.903 92.9094 67.903C86.9705 67.903 82.0425 72.7047 82.0425 78.7699C82.0425 82.0552 83.4324 84.9615 85.8333 86.9832C77.1145 93.4275 77.1145 111.244 77.1145 111.244H108.704C108.704 111.118 108.704 93.3012 99.9854 86.8569Z" fill="#9B9B9B" stroke="white" stroke-width="2"/>
<path d="M4.79085 1.00012H126.095C127.485 1.00012 128.622 2.13735 128.622 3.5273V155.158C128.622 156.548 127.485 157.685 126.095 157.685H4.79085C3.4009 157.685 2.26367 156.548 2.26367 155.158V3.5273C2.26367 2.13735 3.4009 1.00012 4.79085 1.00012Z" stroke="white" stroke-width="2"/>
</g>
<path d="M191.802 35.1167H296.68" stroke="#979797" stroke-linecap="square"/>
<path d="M360.491 30.6944H433.906" stroke="#979797" stroke-linecap="square"/>
<rect x="1" y="1" width="127.622" height="159.212" rx="3" stroke="#9B9B9B" stroke-width="2" stroke-linecap="round" stroke-linejoin="round"/>
<path d="M7.31795 198.12H128.622C130.012 198.12 131.15 199.257 131.15 200.647V351.014C131.15 352.404 130.012 353.541 128.622 353.541H7.31795C5.928 353.541 4.79077 352.404 4.79077 351.014V200.647C4.79077 199.257 5.928 198.12 7.31795 198.12Z" fill="white"/>
<mask id="mask18" mask-type="alpha" maskUnits="userSpaceOnUse" x="4" y="198" width="128" height="156">
<path d="M7.31795 198.12H128.622C130.012 198.12 131.15 199.257 131.15 200.647V351.014C131.15 352.404 130.012 353.541 128.622 353.541H7.31795C5.928 353.541 4.79077 352.404 4.79077 351.014V200.647C4.79077 199.257 5.928 198.12 7.31795 198.12Z" fill="white"/>
</mask>
<g mask="url(#mask18)">
<path d="M122.81 235.522H13.1306V252.202H122.81V235.522Z" fill="#2672F2"/>
</g>
<mask id="mask19" mask-type="alpha" maskUnits="userSpaceOnUse" x="4" y="198" width="128" height="156">
<path d="M7.31795 198.12H128.622C130.012 198.12 131.15 199.257 131.15 200.647V351.014C131.15 352.404 130.012 353.541 128.622 353.541H7.31795C5.928 353.541 4.79077 352.404 4.79077 351.014V200.647C4.79077 199.257 5.928 198.12 7.31795 198.12Z" fill="white"/>
</mask>
<g mask="url(#mask19)">
<path d="M76.31 317.023H13.1306V371.863H76.31V317.023Z" fill="#2672F2"/>
</g>
<mask id="mask20" mask-type="alpha" maskUnits="userSpaceOnUse" x="4" y="198" width="128" height="156">
<path d="M7.31795 198.12H128.622C130.012 198.12 131.15 199.257 131.15 200.647V351.014C131.15 352.404 130.012 353.541 128.622 353.541H7.31795C5.928 353.541 4.79077 352.404 4.79077 351.014V200.647C4.79077 199.257 5.928 198.12 7.31795 198.12Z" fill="white"/>
</mask>
<g mask="url(#mask20)">
<path d="M54.6758 257.109H13.1038V263.806H54.6758V257.109Z" fill="#2672F2"/>
<path d="M54.6758 268.735H13.1038V275.432H54.6758V268.735Z" fill="#2672F2"/>
<path d="M54.6758 280.359H13.1038V287.056H54.6758V280.359Z" fill="#2672F2"/>
<path d="M54.6758 291.984H13.1038V298.681H54.6758V291.984Z" fill="#2672F2"/>
</g>
<mask id="mask21" mask-type="alpha" maskUnits="userSpaceOnUse" x="4" y="198" width="128" height="156">
<path d="M7.31795 198.12H128.622C130.012 198.12 131.15 199.257 131.15 200.647V351.014C131.15 352.404 130.012 353.541 128.622 353.541H7.31795C5.928 353.541 4.79077 352.404 4.79077 351.014V200.647C4.79077 199.257 5.928 198.12 7.31795 198.12Z" fill="white"/>
</mask>
<g mask="url(#mask21)">
<path d="M13.8887 307.799H121.925" stroke="#2672F2" stroke-linecap="square"/>
</g>
<mask id="mask22" mask-type="alpha" maskUnits="userSpaceOnUse" x="4" y="198" width="128" height="156">
<path d="M7.31795 198.12H128.622C130.012 198.12 131.15 199.257 131.15 200.647V351.014C131.15 352.404 130.012 353.541 128.622 353.541H7.31795C5.928 353.541 4.79077 352.404 4.79077 351.014V200.647C4.79077 199.257 5.928 198.12 7.31795 198.12Z" fill="white"/>
</mask>
<g mask="url(#mask22)">
<path d="M122.843 316.964H81.2712V323.661H122.843V316.964Z" fill="#2672F2"/>
<path d="M122.843 328.589H81.2712V335.286H122.843V328.589Z" fill="#2672F2"/>
<path d="M122.843 340.214H81.2712V346.911H122.843V340.214Z" fill="#2672F2"/>
</g>
<mask id="mask23" mask-type="alpha" maskUnits="userSpaceOnUse" x="4" y="198" width="128" height="156">
<path d="M7.31795 198.12H128.622C130.012 198.12 131.15 199.257 131.15 200.647V351.014C131.15 352.404 130.012 353.541 128.622 353.541H7.31795C5.928 353.541 4.79077 352.404 4.79077 351.014V200.647C4.79077 199.257 5.928 198.12 7.31795 198.12Z" fill="white"/>
</mask>
<g mask="url(#mask23)">
<path d="M136.204 182.956H2.26367V225.918H136.204V182.956Z" fill="#EBF3FF"/>
<path d="M122.81 257.129H59.6304V298.701H122.81V257.129Z" fill="#2672F2"/>
</g>
<mask id="mask24" mask-type="alpha" maskUnits="userSpaceOnUse" x="59" y="257" width="64" height="42">
<path d="M122.81 257.129H59.6304V298.701H122.81V257.129Z" fill="white"/>
</mask>
<g mask="url(#mask24)">
<path d="M78.1255 284.23C79.7682 282.84 80.9054 280.692 80.9054 278.291C80.9054 273.869 77.3674 270.331 72.9448 270.331C68.5223 270.331 64.9842 273.869 64.9842 278.291C64.9842 280.692 65.9951 282.84 67.7641 284.23C61.3198 288.905 61.3198 302.047 61.3198 302.047H84.5698C84.5698 302.047 84.5698 288.905 78.1255 284.23Z" fill="#2672F2" stroke="white"/>
<path d="M114.011 286.125C115.401 284.861 116.412 282.966 116.412 280.818C116.412 276.901 113.379 273.742 109.589 273.742C105.798 273.742 102.765 276.901 102.765 280.818C102.765 282.966 103.65 284.861 105.166 286.125C99.6062 290.295 99.6062 301.92 99.6062 301.92H119.571C119.571 302.046 119.571 290.295 114.011 286.125Z" fill="#2672F2" stroke="white"/>
<path d="M102.513 282.714C104.787 280.692 106.303 277.786 106.303 274.5C106.177 268.561 101.375 263.76 95.4365 263.76C89.4976 263.76 84.5696 268.561 84.5696 274.627C84.5696 277.912 85.9595 280.818 88.3604 282.84C79.6416 289.284 79.6416 307.101 79.6416 307.101H111.231C111.231 306.974 111.231 289.158 102.513 282.714Z" fill="#2672F2" stroke="white"/>
<path d="M7.31795 196.856H128.622C130.012 196.856 131.15 197.994 131.15 199.383V351.014C131.15 352.404 130.012 353.541 128.622 353.541H7.31795C5.928 353.541 4.79077 352.404 4.79077 351.014V199.383C4.79077 197.994 5.928 196.856 7.31795 196.856Z" stroke="#2672F2" stroke-width="2"/>
</g>
<path d="M11.7406 206.966C12.7874 206.966 13.636 206.117 13.636 205.07C13.636 204.024 12.7874 203.175 11.7406 203.175C10.6938 203.175 9.84521 204.024 9.84521 205.07C9.84521 206.117 10.6938 206.966 11.7406 206.966Z" fill="#2672F2"/>
<path d="M18.0582 206.965C19.105 206.965 19.9536 206.116 19.9536 205.069C19.9536 204.022 19.105 203.174 18.0582 203.174C17.0114 203.174 16.1628 204.022 16.1628 205.069C16.1628 206.116 17.0114 206.965 18.0582 206.965Z" fill="#2672F2"/>
<path d="M24.3763 206.965C25.4231 206.965 26.2717 206.116 26.2717 205.069C26.2717 204.022 25.4231 203.174 24.3763 203.174C23.3295 203.174 22.481 204.022 22.481 205.069C22.481 206.116 23.3295 206.965 24.3763 206.965Z" fill="#2672F2"/>
<path d="M122.305 209.492H31.3262V220.864H122.305V209.492Z" fill="white" stroke="#2672F2"/>
<path d="M59.1251 213.283H35.1169V217.073H59.1251V213.283Z" fill="#2672F2"/>
<path d="M13.6359 219.348L10.0979 215.81L13.6359 212.272V219.348Z" fill="#2672F2"/>
<path d="M18.4375 219.221L21.9755 215.683L18.4375 212.019V219.221Z" fill="#2672F2"/>
<path d="M5.2959 226.55H130.644" stroke="#2672F2" stroke-linecap="square"/>
<rect x="3.5271" y="198.12" width="127.622" height="159.212" rx="3" stroke="#3F77E6" stroke-width="2" stroke-linecap="round" stroke-linejoin="round"/>
<path d="M339.641 199.383H460.946C462.336 199.383 463.473 200.52 463.473 201.91V352.277C463.473 353.667 462.336 354.804 460.946 354.804H339.641C338.251 354.804 337.114 353.667 337.114 352.277V201.91C337.114 200.52 338.251 199.383 339.641 199.383Z" fill="white"/>
<mask id="mask25" mask-type="alpha" maskUnits="userSpaceOnUse" x="337" y="199" width="127" height="156">
<path d="M339.641 199.383H460.946C462.336 199.383 463.473 200.52 463.473 201.91V352.277C463.473 353.667 462.336 354.804 460.946 354.804H339.641C338.251 354.804 337.114 353.667 337.114 352.277V201.91C337.114 200.52 338.251 199.383 339.641 199.383Z" fill="white"/>
</mask>
<g mask="url(#mask25)">
<path d="M455.133 236.785H345.454V253.464H455.133V236.785Z" fill="#2672F2"/>
</g>
<mask id="mask26" mask-type="alpha" maskUnits="userSpaceOnUse" x="337" y="199" width="127" height="156">
<path d="M339.641 199.383H460.946C462.336 199.383 463.473 200.52 463.473 201.91V352.277C463.473 353.667 462.336 354.804 460.946 354.804H339.641C338.251 354.804 337.114 353.667 337.114 352.277V201.91C337.114 200.52 338.251 199.383 339.641 199.383Z" fill="white"/>
</mask>
<g mask="url(#mask26)">
<path d="M408.633 318.287H345.454V373.127H408.633V318.287Z" fill="#2672F2"/>
</g>
<mask id="mask27" mask-type="alpha" maskUnits="userSpaceOnUse" x="337" y="199" width="127" height="156">
<path d="M339.641 199.383H460.946C462.336 199.383 463.473 200.52 463.473 201.91V352.277C463.473 353.667 462.336 354.804 460.946 354.804H339.641C338.251 354.804 337.114 353.667 337.114 352.277V201.91C337.114 200.52 338.251 199.383 339.641 199.383Z" fill="white"/>
</mask>
<g mask="url(#mask27)">
<path d="M387.001 258.372H345.428V265.069H387.001V258.372Z" fill="#2672F2"/>
<path d="M387 269.997H345.428V276.694H387V269.997Z" fill="#2672F2"/>
<path d="M387 281.622H345.428V288.319H387V281.622Z" fill="#2672F2"/>
<path d="M387 293.247H345.428V299.944H387V293.247Z" fill="#2672F2"/>
</g>
<mask id="mask28" mask-type="alpha" maskUnits="userSpaceOnUse" x="337" y="199" width="127" height="156">
<path d="M339.641 199.383H460.946C462.336 199.383 463.473 200.52 463.473 201.91V352.277C463.473 353.667 462.336 354.804 460.946 354.804H339.641C338.251 354.804 337.114 353.667 337.114 352.277V201.91C337.114 200.52 338.251 199.383 339.641 199.383Z" fill="white"/>
</mask>
<g mask="url(#mask28)">
<path d="M346.212 309.062H454.249" stroke="#2672F2" stroke-linecap="square"/>
</g>
<mask id="mask29" mask-type="alpha" maskUnits="userSpaceOnUse" x="337" y="199" width="127" height="156">
<path d="M339.641 199.383H460.946C462.336 199.383 463.473 200.52 463.473 201.91V352.277C463.473 353.667 462.336 354.804 460.946 354.804H339.641C338.251 354.804 337.114 353.667 337.114 352.277V201.91C337.114 200.52 338.251 199.383 339.641 199.383Z" fill="white"/>
</mask>
<g mask="url(#mask29)">
<path d="M455.167 318.227H413.595V324.924H455.167V318.227Z" fill="#2672F2"/>
<path d="M455.167 329.852H413.595V336.549H455.167V329.852Z" fill="#2672F2"/>
<path d="M455.167 341.477H413.595V348.174H455.167V341.477Z" fill="#2672F2"/>
</g>
<mask id="mask30" mask-type="alpha" maskUnits="userSpaceOnUse" x="337" y="199" width="127" height="156">
<path d="M339.641 199.383H460.946C462.336 199.383 463.473 200.52 463.473 201.91V352.277C463.473 353.667 462.336 354.804 460.946 354.804H339.641C338.251 354.804 337.114 353.667 337.114 352.277V201.91C337.114 200.52 338.251 199.383 339.641 199.383Z" fill="white"/>
</mask>
<g mask="url(#mask30)">
<path d="M463.472 184.22H329.532V227.182H463.472V184.22Z" fill="#EBF3FF"/>
<path d="M455.133 258.393H391.953V299.965H455.133V258.393Z" fill="#2672F2"/>
</g>
<mask id="mask31" mask-type="alpha" maskUnits="userSpaceOnUse" x="391" y="258" width="65" height="42">
<path d="M455.133 258.393H391.953V299.965H455.133V258.393Z" fill="white"/>
</mask>
<g mask="url(#mask31)">
<path d="M410.449 285.493C412.092 284.103 413.229 281.955 413.229 279.554C413.229 275.131 409.691 271.593 405.268 271.593C400.846 271.593 397.308 275.131 397.308 279.554C397.308 281.955 398.319 284.103 400.088 285.493C393.643 290.168 393.643 303.309 393.643 303.309H416.893C416.893 303.309 416.893 290.168 410.449 285.493Z" fill="#2672F2" stroke="white"/>
<path d="M446.335 287.388C447.725 286.124 448.736 284.229 448.736 282.081C448.736 278.164 445.703 275.005 441.913 275.005C438.122 275.005 435.089 278.164 435.089 282.081C435.089 284.229 435.974 286.124 437.49 287.388C431.93 291.558 431.93 303.183 431.93 303.183H451.895C451.895 303.309 451.895 291.558 446.335 287.388Z" fill="#2672F2" stroke="white"/>
<path d="M434.836 283.976C437.111 281.955 438.627 279.048 438.627 275.763C438.501 269.824 433.699 265.023 427.76 265.023C421.821 265.023 416.893 269.824 416.893 275.889C416.893 279.175 418.283 282.081 420.684 284.103C411.965 290.547 411.965 308.364 411.965 308.364H443.555C443.555 308.237 443.555 290.421 434.836 283.976Z" fill="#2672F2" stroke="white"/>
<path d="M339.641 198.119H460.946C462.336 198.119 463.473 199.256 463.473 200.646V352.277C463.473 353.667 462.336 354.804 460.946 354.804H339.641C338.251 354.804 337.114 353.667 337.114 352.277V200.646C337.114 199.256 338.251 198.119 339.641 198.119Z" stroke="#2672F2" stroke-width="2"/>
</g>
<path d="M344.064 208.229C345.11 208.229 345.959 207.38 345.959 206.333C345.959 205.287 345.11 204.438 344.064 204.438C343.017 204.438 342.168 205.287 342.168 206.333C342.168 207.38 343.017 208.229 344.064 208.229Z" fill="#2672F2"/>
<path d="M350.381 208.228C351.428 208.228 352.277 207.379 352.277 206.333C352.277 205.286 351.428 204.437 350.381 204.437C349.335 204.437 348.486 205.286 348.486 206.333C348.486 207.379 349.335 208.228 350.381 208.228Z" fill="#2672F2"/>
<path d="M356.699 208.228C357.746 208.228 358.594 207.379 358.594 206.333C358.594 205.286 357.746 204.437 356.699 204.437C355.652 204.437 354.804 205.286 354.804 206.333C354.804 207.379 355.652 208.228 356.699 208.228Z" fill="#2672F2"/>
<path d="M454.628 210.755H363.649V222.128H454.628V210.755Z" fill="white" stroke="#2672F2"/>
<path d="M391.448 214.546H367.44V218.337H391.448V214.546Z" fill="#2672F2"/>
<path d="M345.959 220.611L342.421 217.073L345.959 213.535V220.611Z" fill="#2672F2"/>
<path d="M350.76 220.485L354.298 216.947L350.76 213.282V220.485Z" fill="#2672F2"/>
<path d="M337.746 227.814H462.968" stroke="#2672F2" stroke-linecap="square"/>
<rect x="338.377" y="198.12" width="127.622" height="159.212" rx="3" stroke="#3F77E6" stroke-width="2" stroke-linecap="round" stroke-linejoin="round"/>
<path d="M226.573 301.733H254.21C255.867 301.733 257.21 300.39 257.21 298.733V271.642C257.21 270.863 256.907 270.115 256.365 269.555L247.77 260.683C247.205 260.1 246.428 259.77 245.616 259.77H226.573C224.917 259.77 223.573 261.113 223.573 262.77V298.733C223.573 300.39 224.917 301.733 226.573 301.733Z" fill="#3F77E6" stroke="#3F77E6" stroke-width="2" stroke-linecap="round" stroke-linejoin="round"/>
<path d="M244.891 257.508V272.671H258.791" stroke="white" stroke-width="2"/>
<path d="M253.736 285.307H266.372L261.318 316.896C261.318 317.739 260.433 319.423 251.841 319.423" stroke="#9B9B9B" stroke-width="2"/>
<path d="M260.078 318.132C261.006 317.204 261.528 315.945 261.528 314.632V287.413C261.528 286.1 261.006 284.841 260.078 283.913C259.15 282.985 257.891 282.464 256.579 282.464H234.308L229.359 275.04H216.986C215.674 275.04 214.415 275.561 213.487 276.49C212.559 277.418 212.037 278.676 212.037 279.989V314.632C212.037 314.632 211.851 318.12 212.669 318.792C213.487 319.464 216.986 319.581 216.986 319.581H256.579C257.891 319.581 259.15 319.06 260.078 318.132Z" fill="white" stroke="#9B9B9B" stroke-width="2" stroke-linecap="round" stroke-linejoin="round"/>
<path d="M172.342 300.217L183.967 289.603L172.342 278.989V284.296L176.006 287.834H158.948V291.625H176.006L172.342 294.91V300.217Z" fill="#3F77E6"/>
<path d="M302.492 300.217L314.117 289.603L302.492 278.989V284.296L306.156 287.834H289.098V291.625H306.156L302.492 294.91V300.217Z" fill="#3F77E6"/>
</svg>
