<svg width="465" height="359" viewBox="0 0 465 359" fill="none" xmlns="http://www.w3.org/2000/svg">
<line x1="67.5" y1="160" x2="67.5" y2="204" stroke="#3F77E6" stroke-width="3"/>
<path d="M193.398 1H296.347C297.92 1 299.207 2.28686 299.207 3.8597V141.125C299.207 142.698 297.92 143.985 296.347 143.985H193.398C191.825 143.985 190.538 142.698 190.538 141.125V3.8597C190.538 2.28686 191.825 1 193.398 1Z" fill="white"/>
<mask id="mask0" mask-type="alpha" maskUnits="userSpaceOnUse" x="190" y="1" width="110" height="143">
<path d="M193.398 1H296.347C297.92 1 299.207 2.28686 299.207 3.8597V141.125C299.207 142.698 297.92 143.985 296.347 143.985H193.398C191.825 143.985 190.538 142.698 190.538 141.125V3.8597C190.538 2.28686 191.825 1 193.398 1Z" fill="white"/>
</mask>
<g mask="url(#mask0)">
<path d="M233.434 78.2117H197.688V83.9311H233.434V78.2117Z" fill="#9B9B9B"/>
<path d="M249.163 68.2028H197.688V73.9222H249.163V68.2028Z" fill="#9B9B9B"/>
<path d="M233.434 88.2211H197.688V93.9405H233.434V88.2211Z" fill="#9B9B9B"/>
<path d="M233.434 98.2299H197.688V103.949H233.434V98.2299Z" fill="#9B9B9B"/>
<path d="M198.403 114.673H291.343" stroke="#9B9B9B" stroke-width="3" stroke-linecap="square"/>
<path d="M198.403 60.3386H291.343" stroke="#9B9B9B" stroke-width="3" stroke-linecap="square"/>
</g>
<mask id="mask1" mask-type="alpha" maskUnits="userSpaceOnUse" x="190" y="1" width="110" height="143">
<path d="M193.398 1H296.347C297.92 1 299.207 2.28686 299.207 3.8597V141.125C299.207 142.698 297.92 143.985 296.347 143.985H193.398C191.825 143.985 190.538 142.698 190.538 141.125V3.8597C190.538 2.28686 191.825 1 193.398 1Z" fill="white"/>
</mask>
<g mask="url(#mask1)">
<path d="M219.137 121.108H197.689V126.827H219.137V121.108Z" fill="#9B9B9B"/>
<path d="M219.136 131.116H197.688V136.835H219.136V131.116Z" fill="#9B9B9B"/>
</g>
<mask id="mask2" mask-type="alpha" maskUnits="userSpaceOnUse" x="190" y="1" width="110" height="143">
<path d="M193.398 1H296.347C297.92 1 299.207 2.28686 299.207 3.8597V141.125C299.207 142.698 297.92 143.985 296.347 143.985H193.398C191.825 143.985 190.538 142.698 190.538 141.125V3.8597C190.538 2.28686 191.825 1 193.398 1Z" fill="white"/>
</mask>
<g mask="url(#mask2)">
<path d="M277.759 42.4661H197.688V53.9049H277.759V42.4661Z" fill="#9B9B9B"/>
</g>
<mask id="mask3" mask-type="alpha" maskUnits="userSpaceOnUse" x="190" y="1" width="110" height="143">
<path d="M193.398 1H296.347C297.92 1 299.207 2.28686 299.207 3.8597V141.125C299.207 142.698 297.92 143.985 296.347 143.985H193.398C191.825 143.985 190.538 142.698 190.538 141.125V3.8597C190.538 2.28686 191.825 1 193.398 1Z" fill="white"/>
</mask>
<g mask="url(#mask3)">
<path d="M292.058 42.4661H280.619V53.9049H292.058V42.4661Z" fill="#9B9B9B"/>
</g>
<mask id="mask4" mask-type="alpha" maskUnits="userSpaceOnUse" x="190" y="1" width="110" height="143">
<path d="M193.398 1H296.347C297.92 1 299.207 2.28686 299.207 3.8597V141.125C299.207 142.698 297.92 143.985 296.347 143.985H193.398C191.825 143.985 190.538 142.698 190.538 141.125V3.8597C190.538 2.28686 191.825 1 193.398 1Z" fill="white"/>
</mask>
<g mask="url(#mask4)">
<path d="M292.057 121.108H227.714V152.564H292.057V121.108Z" fill="#9B9B9B"/>
</g>
<mask id="mask5" mask-type="alpha" maskUnits="userSpaceOnUse" x="190" y="1" width="110" height="143">
<path d="M193.398 1H296.347C297.92 1 299.207 2.28686 299.207 3.8597V141.125C299.207 142.698 297.92 143.985 296.347 143.985H193.398C191.825 143.985 190.538 142.698 190.538 141.125V3.8597C190.538 2.28686 191.825 1 193.398 1Z" fill="white"/>
</mask>
<g mask="url(#mask5)">
<path d="M250.592 145.271C251.879 144.127 252.737 142.555 252.737 140.696C252.737 137.407 250.02 134.69 246.732 134.69C243.443 134.69 240.583 137.407 240.583 140.696C240.583 142.555 241.441 144.127 242.728 145.271C237.724 148.846 237.724 158.712 237.724 158.712H255.454C255.454 158.712 255.454 148.846 250.592 145.271Z" fill="#9B9B9B" stroke="white" stroke-width="3"/>
<path d="M277.902 146.702C279.046 145.701 279.761 144.271 279.761 142.698C279.761 139.695 277.473 137.265 274.614 137.265C271.754 137.265 269.18 139.695 269.18 142.698C269.18 144.271 269.895 145.844 271.039 146.702C266.892 149.847 266.892 158.712 266.892 158.712H282.049C282.049 158.712 282.049 149.847 277.902 146.702Z" fill="#9B9B9B" stroke="white" stroke-width="3"/>
<path d="M269.038 144.128C270.753 142.555 271.897 140.41 271.897 137.836C271.897 133.261 268.18 129.543 263.604 129.543C259.029 129.543 255.311 133.261 255.311 137.836C255.311 140.267 256.455 142.555 258.171 144.128C251.593 148.989 251.593 162.573 251.593 162.573H275.615C275.758 162.573 275.758 148.989 269.038 144.128Z" fill="#9B9B9B" stroke="white" stroke-width="3"/>
</g>
<mask id="mask6" mask-type="alpha" maskUnits="userSpaceOnUse" x="190" y="1" width="110" height="143">
<path d="M193.398 1H296.347C297.92 1 299.207 2.28686 299.207 3.8597V141.125C299.207 142.698 297.92 143.985 296.347 143.985H193.398C191.825 143.985 190.538 142.698 190.538 141.125V3.8597C190.538 2.28686 191.825 1 193.398 1Z" fill="white"/>
</mask>
<g mask="url(#mask6)">
<path d="M320.655 -13.2982H169.091V35.3167H320.655V-13.2982Z" fill="#F2F2F2"/>
</g>
<mask id="mask7" mask-type="alpha" maskUnits="userSpaceOnUse" x="190" y="1" width="110" height="143">
<path d="M193.398 1H296.347C297.92 1 299.207 2.28686 299.207 3.8597V141.125C299.207 142.698 297.92 143.985 296.347 143.985H193.398C191.825 143.985 190.538 142.698 190.538 141.125V3.8597C190.538 2.28686 191.825 1 193.398 1Z" fill="white"/>
</mask>
<g mask="url(#mask7)">
<path d="M274.185 101.233L270.753 105.093L268.894 100.232L264.319 102.377L264.462 97.2291L259.314 97.3721L261.459 92.7965L256.598 90.9377L260.458 87.5061L256.598 84.0745L261.459 82.2156L259.314 77.6401L264.462 77.7831L264.319 72.6357L268.894 74.7804L270.753 69.9189L274.185 73.7795L277.617 69.9189L279.475 74.7804L284.051 72.6357L283.908 77.7831L289.055 77.6401L286.911 82.2156L291.772 84.0745L287.911 87.5061L291.772 90.9377L286.911 92.7965L289.055 97.3721L283.908 97.2291L284.051 102.377L279.475 100.232L277.617 105.093L274.185 101.233Z" fill="#9B9B9B"/>
<path d="M193.398 1H296.347C297.92 1 299.207 2.28686 299.207 3.8597V141.125C299.207 142.698 297.92 143.985 296.347 143.985H193.398C191.825 143.985 190.538 142.698 190.538 141.125V3.8597C190.538 2.28686 191.825 1 193.398 1Z" stroke="#9B9B9B" stroke-width="3"/>
</g>
<path d="M361.123 1H433.147C434.537 1 435.674 2.13723 435.674 3.52718V105.878C435.674 107.268 434.537 108.405 433.147 108.405H361.123C359.733 108.405 358.595 107.268 358.595 105.878V3.52718C358.595 2.13723 359.733 1 361.123 1Z" fill="white" stroke="#9B9B9B" stroke-width="2"/>
<mask id="mask8" mask-type="alpha" maskUnits="userSpaceOnUse" x="358" y="1" width="78" height="108">
<path d="M361.123 1H433.147C434.537 1 435.674 2.13723 435.674 3.52718V105.878C435.674 107.268 434.537 108.405 433.147 108.405H361.123C359.733 108.405 358.595 107.268 358.595 105.878V3.52718C358.595 2.13723 359.733 1 361.123 1Z" fill="white"/>
</mask>
<g mask="url(#mask8)">
<path d="M384.878 66.4537H388.037V67.8436H384.878V72.898H383.236V67.8436H373.759V66.9591L383.109 52.8069H384.878V66.4537ZM375.78 66.4537H383.236V54.955L382.477 56.2186L375.78 66.4537ZM402.568 64.5583C402.568 67.4645 402.063 69.6126 401.052 71.0026C400.041 72.5189 398.525 73.277 396.377 73.277C394.355 73.277 392.839 72.5189 391.828 71.1289C390.817 69.739 390.185 67.5909 390.185 64.811V61.1466C390.185 58.3667 390.691 56.2186 391.828 54.7023C392.965 53.186 394.482 52.5542 396.503 52.5542C398.525 52.5542 400.041 53.3124 401.052 54.7023C402.063 56.0922 402.695 58.2403 402.695 60.8939V64.5583H402.568ZM400.926 60.8939C400.926 58.6194 400.547 56.8504 399.789 55.7132C399.03 54.5759 397.893 53.9441 396.377 53.9441C394.861 53.9441 393.723 54.5759 392.965 55.7132C392.207 56.8504 391.828 58.6194 391.828 60.7675V64.6846C391.828 66.9591 392.207 68.7281 392.965 69.9917C393.723 71.2553 394.861 71.7607 396.377 71.7607C397.893 71.7607 399.03 71.1289 399.789 69.9917C400.547 68.8545 400.926 67.0855 400.926 64.811V60.8939ZM416.342 66.4537H419.501V67.8436H416.342V72.898H414.699V67.8436H405.222V66.9591L414.573 52.8069H416.342V66.4537ZM407.244 66.4537H414.699V54.955L413.941 56.2186L407.244 66.4537Z" fill="#9B9B9B"/>
</g>
<mask id="mask9" mask-type="alpha" maskUnits="userSpaceOnUse" x="358" y="1" width="78" height="108">
<path d="M361.123 1H433.147C434.537 1 435.674 2.13723 435.674 3.52718V105.878C435.674 107.268 434.537 108.405 433.147 108.405H361.123C359.733 108.405 358.595 107.268 358.595 105.878V3.52718C358.595 2.13723 359.733 1 361.123 1Z" fill="white"/>
</mask>
<g mask="url(#mask9)">
<path d="M464.737 -11.6355H330.797V31.3265H464.737V-11.6355Z" fill="#F1F1F1"/>
</g>
<mask id="mask10" mask-type="alpha" maskUnits="userSpaceOnUse" x="358" y="1" width="78" height="108">
<path d="M361.123 1H433.147C434.537 1 435.674 2.13723 435.674 3.52718V105.878C435.674 107.268 434.537 108.405 433.147 108.405H361.123C359.733 108.405 358.595 107.268 358.595 105.878V3.52718C358.595 2.13723 359.733 1 361.123 1Z" fill="white"/>
</mask>
<g mask="url(#mask10)">
<path d="M410.403 85.1555H385.005V89.199H410.403V85.1555Z" fill="#9B9B9B"/>
<path d="M361.123 1H433.147C434.537 1 435.674 2.13723 435.674 3.52718V105.878C435.674 107.268 434.537 108.405 433.147 108.405H361.123C359.733 108.405 358.595 107.268 358.595 105.878V3.52718C358.595 2.13723 359.733 1 361.123 1Z" stroke="#9B9B9B" stroke-width="2"/>
</g>
<path d="M153.389 90.4623L165.014 79.8481L153.389 69.234V74.5411L157.053 78.0791H139.995V81.8699H157.053L153.389 85.1552V90.4623Z" fill="#9B9B9B"/>
<path d="M330.291 90.4623L341.916 79.8481L330.291 69.234V74.5411L333.956 78.0791H316.897V81.8699H333.956L330.291 85.1552V90.4623Z" fill="#9B9B9B"/>
<path d="M198.403 12.4392C199.587 12.4392 200.547 11.479 200.547 10.2944C200.547 9.10991 199.587 8.14966 198.403 8.14966C197.218 8.14966 196.258 9.10991 196.258 10.2944C196.258 11.479 197.218 12.4392 198.403 12.4392Z" fill="#9B9B9B"/>
<path d="M205.551 12.4388C206.736 12.4388 207.696 11.4786 207.696 10.2941C207.696 9.10954 206.736 8.14929 205.551 8.14929C204.367 8.14929 203.406 9.10954 203.406 10.2941C203.406 11.4786 204.367 12.4388 205.551 12.4388Z" fill="#9B9B9B"/>
<path d="M212.701 12.4388C213.886 12.4388 214.846 11.4786 214.846 10.2941C214.846 9.10954 213.886 8.14929 212.701 8.14929C211.517 8.14929 210.557 9.10954 210.557 10.2941C210.557 11.4786 211.517 12.4388 212.701 12.4388Z" fill="#9B9B9B"/>
<path d="M292.057 15.2983H220.565V28.167H292.057V15.2983Z" fill="white" stroke="#979797"/>
<path d="M264.891 19.5883H224.855V23.8778H264.891V19.5883Z" fill="#9B9B9B"/>
<path d="M200.548 26.4514L196.544 22.4478L200.548 18.4442V26.4514Z" fill="#9B9B9B"/>
<path d="M205.98 26.3082L209.984 22.3046L205.98 18.1581V26.3082Z" fill="#9B9B9B"/>
<path d="M365.546 11.1085C366.592 11.1085 367.441 10.2599 367.441 9.21313C367.441 8.16634 366.592 7.31775 365.546 7.31775C364.499 7.31775 363.65 8.16634 363.65 9.21313C363.65 10.2599 364.499 11.1085 365.546 11.1085Z" fill="#9B9B9B"/>
<path d="M371.864 11.1084C372.911 11.1084 373.759 10.2598 373.759 9.21301C373.759 8.16622 372.911 7.31763 371.864 7.31763C370.817 7.31763 369.968 8.16622 369.968 9.21301C369.968 10.2598 370.817 11.1084 371.864 11.1084Z" fill="#9B9B9B"/>
<path d="M378.181 11.1084C379.228 11.1084 380.077 10.2598 380.077 9.21301C380.077 8.16622 379.228 7.31763 378.181 7.31763C377.134 7.31763 376.286 8.16622 376.286 9.21301C376.286 10.2598 377.134 11.1084 378.181 11.1084Z" fill="#9B9B9B"/>
<path d="M429.356 13.6356H383.867V25.0079H429.356V13.6356Z" fill="white" stroke="#979797"/>
<path d="M423.039 17.4266H387.658V21.2174H423.039V17.4266Z" fill="#9B9B9B"/>
<path d="M367.441 23.4916L363.903 19.9536L367.441 16.4155V23.4916Z" fill="#9B9B9B"/>
<path d="M372.242 23.3652L375.78 19.8271L372.242 16.1627V23.3652Z" fill="#9B9B9B"/>
<path d="M4.79085 2.26331H126.095C127.485 2.26331 128.622 3.40053 128.622 4.79048V155.157C128.622 156.547 127.485 157.685 126.095 157.685H4.79085C3.4009 157.685 2.26367 156.547 2.26367 155.157V4.79048C2.26367 3.40053 3.4009 2.26331 4.79085 2.26331Z" fill="white" stroke="white" stroke-width="2"/>
<mask id="mask11" mask-type="alpha" maskUnits="userSpaceOnUse" x="1" y="1" width="129" height="158">
<path d="M4.79085 2.26331H126.095C127.485 2.26331 128.622 3.40053 128.622 4.79048V155.157C128.622 156.547 127.485 157.685 126.095 157.685H4.79085C3.4009 157.685 2.26367 156.547 2.26367 155.157V4.79048C2.26367 3.40053 3.4009 2.26331 4.79085 2.26331Z" fill="white" stroke="white" stroke-width="2"/>
</mask>
<g mask="url(#mask11)">
<path d="M120.283 39.666H10.6035V56.3454H120.283V39.666Z" fill="#9B9B9B" stroke="white" stroke-width="2"/>
<path d="M133.677 -12.8992H-0.263672V30.0628H133.677V-12.8992Z" fill="#F1F1F1" stroke="white" stroke-width="2"/>
</g>
<mask id="mask12" mask-type="alpha" maskUnits="userSpaceOnUse" x="1" y="1" width="129" height="158">
<path d="M4.79085 2.26331H126.095C127.485 2.26331 128.622 3.40053 128.622 4.79048V155.157C128.622 156.547 127.485 157.685 126.095 157.685H4.79085C3.4009 157.685 2.26367 156.547 2.26367 155.157V4.79048C2.26367 3.40053 3.4009 2.26331 4.79085 2.26331Z" fill="white" stroke="white" stroke-width="2"/>
</mask>
<g mask="url(#mask12)">
<path d="M73.7829 121.167H10.6035V176.007H73.7829V121.167Z" fill="#9B9B9B" stroke="white" stroke-width="2"/>
</g>
<mask id="mask13" mask-type="alpha" maskUnits="userSpaceOnUse" x="1" y="1" width="129" height="158">
<path d="M4.79085 2.26331H126.095C127.485 2.26331 128.622 3.40053 128.622 4.79048V155.157C128.622 156.547 127.485 157.685 126.095 157.685H4.79085C3.4009 157.685 2.26367 156.547 2.26367 155.157V4.79048C2.26367 3.40053 3.4009 2.26331 4.79085 2.26331Z" fill="white" stroke="white" stroke-width="2"/>
</mask>
<g mask="url(#mask13)">
<path d="M52.1485 61.2529H10.5764V67.9499H52.1485V61.2529Z" fill="#9B9B9B" stroke="white" stroke-width="2"/>
<path d="M52.1485 72.8783H10.5764V79.5753H52.1485V72.8783Z" fill="#9B9B9B" stroke="white" stroke-width="2"/>
<path d="M52.1485 84.5028H10.5764V91.1998H52.1485V84.5028Z" fill="#9B9B9B" stroke="white" stroke-width="2"/>
<path d="M52.1485 96.1283H10.5764V102.825H52.1485V96.1283Z" fill="#9B9B9B" stroke="white" stroke-width="2"/>
</g>
<mask id="mask14" mask-type="alpha" maskUnits="userSpaceOnUse" x="1" y="1" width="129" height="158">
<path d="M4.79085 2.26331H126.095C127.485 2.26331 128.622 3.40053 128.622 4.79048V155.157C128.622 156.547 127.485 157.685 126.095 157.685H4.79085C3.4009 157.685 2.26367 156.547 2.26367 155.157V4.79048C2.26367 3.40053 3.4009 2.26331 4.79085 2.26331Z" fill="white" stroke="white" stroke-width="2"/>
</mask>
<g mask="url(#mask14)">
<path d="M11.3611 111.943H119.398" stroke="white" stroke-width="2" stroke-linecap="square"/>
</g>
<mask id="mask15" mask-type="alpha" maskUnits="userSpaceOnUse" x="1" y="1" width="129" height="158">
<path d="M4.79085 2.26331H126.095C127.485 2.26331 128.622 3.40053 128.622 4.79048V155.157C128.622 156.547 127.485 157.685 126.095 157.685H4.79085C3.4009 157.685 2.26367 156.547 2.26367 155.157V4.79048C2.26367 3.40053 3.4009 2.26331 4.79085 2.26331Z" fill="white" stroke="white" stroke-width="2"/>
</mask>
<g mask="url(#mask15)">
<path d="M120.316 121.108H78.7444V127.805H120.316V121.108Z" fill="#9B9B9B" stroke="white" stroke-width="2"/>
<path d="M120.316 132.733H78.7441V139.43H120.316V132.733Z" fill="#9B9B9B" stroke="white" stroke-width="2"/>
<path d="M120.316 144.358H78.7441V151.055H120.316V144.358Z" fill="#9B9B9B" stroke="white" stroke-width="2"/>
</g>
<mask id="mask16" mask-type="alpha" maskUnits="userSpaceOnUse" x="1" y="1" width="129" height="158">
<path d="M4.79085 2.26331H126.095C127.485 2.26331 128.622 3.40053 128.622 4.79048V155.157C128.622 156.547 127.485 157.685 126.095 157.685H4.79085C3.4009 157.685 2.26367 156.547 2.26367 155.157V4.79048C2.26367 3.40053 3.4009 2.26331 4.79085 2.26331Z" fill="white" stroke="#9B9B9B" stroke-width="2"/>
</mask>
<g mask="url(#mask16)">
<path d="M120.283 61.2737H57.1033V102.846H120.283V61.2737Z" fill="#9B9B9B" stroke="white" stroke-width="2"/>
</g>
<mask id="mask17" mask-type="alpha" maskUnits="userSpaceOnUse" x="56" y="60" width="66" height="44">
<path d="M120.283 61.2737H57.1033V102.846H120.283V61.2737Z" fill="white" stroke="white" stroke-width="2"/>
</mask>
<g mask="url(#mask17)">
<path d="M75.5984 88.3732C77.2411 86.9833 78.3783 84.8352 78.3783 82.4344C78.3783 78.0118 74.8403 74.4738 70.4177 74.4738C65.9952 74.4738 62.4571 78.0118 62.4571 82.4344C62.4571 84.8352 63.468 86.9833 65.237 88.3732C58.7927 93.0485 58.7927 106.19 58.7927 106.19H82.0427C82.0427 106.19 82.0427 93.0485 75.5984 88.3732Z" fill="#9B9B9B" stroke="white" stroke-width="2"/>
<path d="M111.484 90.2682C112.874 89.0046 113.885 87.1092 113.885 84.9611C113.885 81.044 110.853 77.885 107.062 77.885C103.271 77.885 100.239 81.044 100.239 84.9611C100.239 87.1092 101.123 89.0046 102.639 90.2682C97.0796 94.438 97.0796 106.063 97.0796 106.063H117.044C117.044 106.189 117.044 94.438 111.484 90.2682Z" fill="#9B9B9B" stroke="white" stroke-width="2"/>
<path d="M99.9854 86.8568C102.26 84.835 103.776 81.9288 103.776 78.6435C103.65 72.7046 98.8482 67.903 92.9094 67.903C86.9705 67.903 82.0425 72.7046 82.0425 78.7698C82.0425 82.0551 83.4324 84.9614 85.8333 86.9831C77.1145 93.4274 77.1145 111.244 77.1145 111.244H108.704C108.704 111.118 108.704 93.3011 99.9854 86.8568Z" fill="#9B9B9B" stroke="white" stroke-width="2"/>
<path d="M4.79085 1.00012H126.095C127.485 1.00012 128.622 2.13735 128.622 3.5273V155.158C128.622 156.548 127.485 157.685 126.095 157.685H4.79085C3.4009 157.685 2.26367 156.548 2.26367 155.158V3.5273C2.26367 2.13735 3.4009 1.00012 4.79085 1.00012Z" stroke="white" stroke-width="2"/>
</g>
<path d="M191.802 35.1167H296.68" stroke="#979797" stroke-linecap="square"/>
<path d="M360.491 30.6945H433.906" stroke="#979797" stroke-linecap="square"/>
<rect x="1" y="1" width="127.622" height="159.212" rx="3" stroke="#9B9B9B" stroke-width="2" stroke-linecap="round" stroke-linejoin="round"/>
<path d="M4.79085 198.12H126.095C127.485 198.12 128.622 199.257 128.622 200.647V351.014C128.622 352.404 127.485 353.541 126.095 353.541H4.79085C3.4009 353.541 2.26367 352.404 2.26367 351.014V200.647C2.26367 199.257 3.4009 198.12 4.79085 198.12Z" fill="white"/>
<mask id="mask18" mask-type="alpha" maskUnits="userSpaceOnUse" x="2" y="198" width="127" height="156">
<path d="M4.79085 198.12H126.095C127.485 198.12 128.622 199.257 128.622 200.647V351.014C128.622 352.404 127.485 353.541 126.095 353.541H4.79085C3.4009 353.541 2.26367 352.404 2.26367 351.014V200.647C2.26367 199.257 3.4009 198.12 4.79085 198.12Z" fill="white"/>
</mask>
<g mask="url(#mask18)">
<path d="M120.283 235.522H10.6035V252.202H120.283V235.522Z" fill="#2672F2"/>
</g>
<mask id="mask19" mask-type="alpha" maskUnits="userSpaceOnUse" x="2" y="198" width="127" height="156">
<path d="M4.79085 198.12H126.095C127.485 198.12 128.622 199.257 128.622 200.647V351.014C128.622 352.404 127.485 353.541 126.095 353.541H4.79085C3.4009 353.541 2.26367 352.404 2.26367 351.014V200.647C2.26367 199.257 3.4009 198.12 4.79085 198.12Z" fill="white"/>
</mask>
<g mask="url(#mask19)">
<path d="M73.7829 317.023H10.6035V371.863H73.7829V317.023Z" fill="#2672F2"/>
</g>
<mask id="mask20" mask-type="alpha" maskUnits="userSpaceOnUse" x="2" y="198" width="127" height="156">
<path d="M4.79085 198.12H126.095C127.485 198.12 128.622 199.257 128.622 200.647V351.014C128.622 352.404 127.485 353.541 126.095 353.541H4.79085C3.4009 353.541 2.26367 352.404 2.26367 351.014V200.647C2.26367 199.257 3.4009 198.12 4.79085 198.12Z" fill="white"/>
</mask>
<g mask="url(#mask20)">
<path d="M52.1487 257.109H10.5767V263.806H52.1487V257.109Z" fill="#2672F2"/>
<path d="M52.1487 268.735H10.5767V275.432H52.1487V268.735Z" fill="#2672F2"/>
<path d="M52.1487 280.359H10.5767V287.056H52.1487V280.359Z" fill="#2672F2"/>
<path d="M52.1487 291.984H10.5767V298.681H52.1487V291.984Z" fill="#2672F2"/>
</g>
<mask id="mask21" mask-type="alpha" maskUnits="userSpaceOnUse" x="2" y="198" width="127" height="156">
<path d="M4.79085 198.12H126.095C127.485 198.12 128.622 199.257 128.622 200.647V351.014C128.622 352.404 127.485 353.541 126.095 353.541H4.79085C3.4009 353.541 2.26367 352.404 2.26367 351.014V200.647C2.26367 199.257 3.4009 198.12 4.79085 198.12Z" fill="white"/>
</mask>
<g mask="url(#mask21)">
<path d="M11.3616 307.799H119.398" stroke="#2672F2" stroke-linecap="square"/>
</g>
<mask id="mask22" mask-type="alpha" maskUnits="userSpaceOnUse" x="2" y="198" width="127" height="156">
<path d="M4.79085 198.12H126.095C127.485 198.12 128.622 199.257 128.622 200.647V351.014C128.622 352.404 127.485 353.541 126.095 353.541H4.79085C3.4009 353.541 2.26367 352.404 2.26367 351.014V200.647C2.26367 199.257 3.4009 198.12 4.79085 198.12Z" fill="white"/>
</mask>
<g mask="url(#mask22)">
<path d="M120.316 316.964H78.7441V323.661H120.316V316.964Z" fill="#2672F2"/>
<path d="M120.316 328.589H78.7441V335.286H120.316V328.589Z" fill="#2672F2"/>
<path d="M120.316 340.214H78.7441V346.911H120.316V340.214Z" fill="#2672F2"/>
</g>
<mask id="mask23" mask-type="alpha" maskUnits="userSpaceOnUse" x="2" y="198" width="127" height="156">
<path d="M4.79085 198.12H126.095C127.485 198.12 128.622 199.257 128.622 200.647V351.014C128.622 352.404 127.485 353.541 126.095 353.541H4.79085C3.4009 353.541 2.26367 352.404 2.26367 351.014V200.647C2.26367 199.257 3.4009 198.12 4.79085 198.12Z" fill="white"/>
</mask>
<g mask="url(#mask23)">
<path d="M133.677 182.956H-0.263428V225.918H133.677V182.956Z" fill="#EBF3FF"/>
<path d="M120.283 257.129H57.1033V298.701H120.283V257.129Z" fill="#2672F2"/>
</g>
<mask id="mask24" mask-type="alpha" maskUnits="userSpaceOnUse" x="57" y="257" width="64" height="42">
<path d="M120.283 257.129H57.1033V298.701H120.283V257.129Z" fill="white"/>
</mask>
<g mask="url(#mask24)">
<path d="M75.5984 284.23C77.2411 282.84 78.3783 280.692 78.3783 278.291C78.3783 273.869 74.8403 270.331 70.4177 270.331C65.9952 270.331 62.4571 273.869 62.4571 278.291C62.4571 280.692 63.468 282.84 65.237 284.23C58.7927 288.905 58.7927 302.047 58.7927 302.047H82.0427C82.0427 302.047 82.0427 288.905 75.5984 284.23Z" fill="#2672F2" stroke="white"/>
<path d="M111.484 286.125C112.874 284.861 113.885 282.966 113.885 280.818C113.885 276.901 110.852 273.742 107.061 273.742C103.271 273.742 100.238 276.901 100.238 280.818C100.238 282.966 101.123 284.861 102.639 286.125C97.0791 290.295 97.0791 301.92 97.0791 301.92H117.044C117.044 302.046 117.044 290.295 111.484 286.125Z" fill="#2672F2" stroke="white"/>
<path d="M99.9854 282.714C102.26 280.692 103.776 277.786 103.776 274.5C103.65 268.561 98.8482 263.76 92.9094 263.76C86.9705 263.76 82.0425 268.561 82.0425 274.627C82.0425 277.912 83.4324 280.818 85.8333 282.84C77.1145 289.284 77.1145 307.101 77.1145 307.101H108.704C108.704 306.974 108.704 289.158 99.9854 282.714Z" fill="#2672F2" stroke="white"/>
<path d="M4.79085 196.856H126.095C127.485 196.856 128.622 197.994 128.622 199.383V351.014C128.622 352.404 127.485 353.541 126.095 353.541H4.79085C3.4009 353.541 2.26367 352.404 2.26367 351.014V199.383C2.26367 197.994 3.4009 196.856 4.79085 196.856Z" stroke="#2672F2" stroke-width="2"/>
</g>
<path d="M9.2135 206.966C10.2603 206.966 11.1089 206.117 11.1089 205.07C11.1089 204.024 10.2603 203.175 9.2135 203.175C8.16671 203.175 7.31812 204.024 7.31812 205.07C7.31812 206.117 8.16671 206.966 9.2135 206.966Z" fill="#2672F2"/>
<path d="M15.5311 206.965C16.5779 206.965 17.4265 206.116 17.4265 205.069C17.4265 204.022 16.5779 203.174 15.5311 203.174C14.4843 203.174 13.6357 204.022 13.6357 205.069C13.6357 206.116 14.4843 206.965 15.5311 206.965Z" fill="#2672F2"/>
<path d="M21.8492 206.965C22.896 206.965 23.7446 206.116 23.7446 205.069C23.7446 204.022 22.896 203.174 21.8492 203.174C20.8024 203.174 19.9539 204.022 19.9539 205.069C19.9539 206.116 20.8024 206.965 21.8492 206.965Z" fill="#2672F2"/>
<path d="M119.777 209.492H28.7991V220.864H119.777V209.492Z" fill="white" stroke="#2672F2"/>
<path d="M56.598 213.283H32.5898V217.073H56.598V213.283Z" fill="#2672F2"/>
<path d="M11.1088 219.348L7.5708 215.81L11.1088 212.272V219.348Z" fill="#2672F2"/>
<path d="M15.9104 219.221L19.4484 215.683L15.9104 212.019V219.221Z" fill="#2672F2"/>
<path d="M2.7688 226.55H128.117" stroke="#2672F2" stroke-linecap="square"/>
<rect x="1" y="198.12" width="127.622" height="159.212" rx="3" stroke="#3F77E6" stroke-width="2" stroke-linecap="round" stroke-linejoin="round"/>
<path d="M337.114 199.383H458.419C459.809 199.383 460.946 200.52 460.946 201.91V352.277C460.946 353.667 459.809 354.804 458.419 354.804H337.114C335.724 354.804 334.587 353.667 334.587 352.277V201.91C334.587 200.52 335.724 199.383 337.114 199.383Z" fill="white"/>
<mask id="mask25" mask-type="alpha" maskUnits="userSpaceOnUse" x="334" y="199" width="127" height="156">
<path d="M337.114 199.383H458.419C459.809 199.383 460.946 200.52 460.946 201.91V352.277C460.946 353.667 459.809 354.804 458.419 354.804H337.114C335.724 354.804 334.587 353.667 334.587 352.277V201.91C334.587 200.52 335.724 199.383 337.114 199.383Z" fill="white"/>
</mask>
<g mask="url(#mask25)">
<path d="M452.606 236.785H342.927V253.465H452.606V236.785Z" fill="#2672F2"/>
</g>
<mask id="mask26" mask-type="alpha" maskUnits="userSpaceOnUse" x="334" y="199" width="127" height="156">
<path d="M337.114 199.383H458.419C459.809 199.383 460.946 200.52 460.946 201.91V352.277C460.946 353.667 459.809 354.804 458.419 354.804H337.114C335.724 354.804 334.587 353.667 334.587 352.277V201.91C334.587 200.52 335.724 199.383 337.114 199.383Z" fill="white"/>
</mask>
<g mask="url(#mask26)">
<path d="M406.106 318.287H342.927V373.127H406.106V318.287Z" fill="#2672F2"/>
</g>
<mask id="mask27" mask-type="alpha" maskUnits="userSpaceOnUse" x="334" y="199" width="127" height="156">
<path d="M337.114 199.383H458.419C459.809 199.383 460.946 200.52 460.946 201.91V352.277C460.946 353.667 459.809 354.804 458.419 354.804H337.114C335.724 354.804 334.587 353.667 334.587 352.277V201.91C334.587 200.52 335.724 199.383 337.114 199.383Z" fill="white"/>
</mask>
<g mask="url(#mask27)">
<path d="M384.473 258.372H342.901V265.069H384.473V258.372Z" fill="#2672F2"/>
<path d="M384.473 269.997H342.901V276.694H384.473V269.997Z" fill="#2672F2"/>
<path d="M384.473 281.622H342.901V288.319H384.473V281.622Z" fill="#2672F2"/>
<path d="M384.473 293.247H342.901V299.944H384.473V293.247Z" fill="#2672F2"/>
</g>
<mask id="mask28" mask-type="alpha" maskUnits="userSpaceOnUse" x="334" y="199" width="127" height="156">
<path d="M337.114 199.383H458.419C459.809 199.383 460.946 200.52 460.946 201.91V352.277C460.946 353.667 459.809 354.804 458.419 354.804H337.114C335.724 354.804 334.587 353.667 334.587 352.277V201.91C334.587 200.52 335.724 199.383 337.114 199.383Z" fill="white"/>
</mask>
<g mask="url(#mask28)">
<path d="M343.685 309.062H451.722" stroke="#2672F2" stroke-linecap="square"/>
</g>
<mask id="mask29" mask-type="alpha" maskUnits="userSpaceOnUse" x="334" y="199" width="127" height="156">
<path d="M337.114 199.383H458.419C459.809 199.383 460.946 200.52 460.946 201.91V352.277C460.946 353.667 459.809 354.804 458.419 354.804H337.114C335.724 354.804 334.587 353.667 334.587 352.277V201.91C334.587 200.52 335.724 199.383 337.114 199.383Z" fill="white"/>
</mask>
<g mask="url(#mask29)">
<path d="M452.64 318.227H411.068V324.924H452.64V318.227Z" fill="#2672F2"/>
<path d="M452.64 329.852H411.068V336.549H452.64V329.852Z" fill="#2672F2"/>
<path d="M452.64 341.477H411.068V348.174H452.64V341.477Z" fill="#2672F2"/>
</g>
<mask id="mask30" mask-type="alpha" maskUnits="userSpaceOnUse" x="334" y="199" width="127" height="156">
<path d="M337.114 199.383H458.419C459.809 199.383 460.946 200.52 460.946 201.91V352.277C460.946 353.667 459.809 354.804 458.419 354.804H337.114C335.724 354.804 334.587 353.667 334.587 352.277V201.91C334.587 200.52 335.724 199.383 337.114 199.383Z" fill="white"/>
</mask>
<g mask="url(#mask30)">
<path d="M460.945 184.22H327.005V227.182H460.945V184.22Z" fill="#EBF3FF"/>
<path d="M452.605 258.393H389.426V299.965H452.605V258.393Z" fill="#2672F2"/>
</g>
<mask id="mask31" mask-type="alpha" maskUnits="userSpaceOnUse" x="389" y="258" width="64" height="42">
<path d="M452.605 258.393H389.426V299.965H452.605V258.393Z" fill="white"/>
</mask>
<g mask="url(#mask31)">
<path d="M407.922 285.493C409.565 284.103 410.702 281.955 410.702 279.554C410.702 275.131 407.164 271.593 402.741 271.593C398.319 271.593 394.781 275.131 394.781 279.554C394.781 281.955 395.791 284.103 397.561 285.493C391.116 290.168 391.116 303.309 391.116 303.309H414.366C414.366 303.309 414.366 290.168 407.922 285.493Z" fill="#2672F2" stroke="white"/>
<path d="M443.808 287.388C445.198 286.124 446.209 284.229 446.209 282.081C446.209 278.164 443.176 275.005 439.385 275.005C435.595 275.005 432.562 278.164 432.562 282.081C432.562 284.229 433.447 286.124 434.963 287.388C429.403 291.558 429.403 303.183 429.403 303.183H449.368C449.368 303.309 449.368 291.558 443.808 287.388Z" fill="#2672F2" stroke="white"/>
<path d="M432.309 283.976C434.584 281.955 436.1 279.048 436.1 275.763C435.974 269.824 431.172 265.023 425.233 265.023C419.294 265.023 414.366 269.824 414.366 275.889C414.366 279.175 415.756 282.081 418.157 284.103C409.438 290.547 409.438 308.364 409.438 308.364H441.028C441.028 308.237 441.028 290.421 432.309 283.976Z" fill="#2672F2" stroke="white"/>
<path d="M337.114 198.119H458.419C459.808 198.119 460.946 199.256 460.946 200.646V352.277C460.946 353.667 459.808 354.804 458.419 354.804H337.114C335.724 354.804 334.587 353.667 334.587 352.277V200.646C334.587 199.256 335.724 198.119 337.114 198.119Z" stroke="#2672F2" stroke-width="2"/>
</g>
<path d="M341.536 208.229C342.583 208.229 343.432 207.38 343.432 206.334C343.432 205.287 342.583 204.438 341.536 204.438C340.49 204.438 339.641 205.287 339.641 206.334C339.641 207.38 340.49 208.229 341.536 208.229Z" fill="#2672F2"/>
<path d="M347.854 208.228C348.901 208.228 349.75 207.379 349.75 206.333C349.75 205.286 348.901 204.437 347.854 204.437C346.808 204.437 345.959 205.286 345.959 206.333C345.959 207.379 346.808 208.228 347.854 208.228Z" fill="#2672F2"/>
<path d="M354.172 208.228C355.219 208.228 356.067 207.379 356.067 206.333C356.067 205.286 355.219 204.437 354.172 204.437C353.125 204.437 352.276 205.286 352.276 206.333C352.276 207.379 353.125 208.228 354.172 208.228Z" fill="#2672F2"/>
<path d="M452.101 210.755H361.122V222.128H452.101V210.755Z" fill="white" stroke="#2672F2"/>
<path d="M388.921 214.546H364.913V218.337H388.921V214.546Z" fill="#2672F2"/>
<path d="M343.432 220.611L339.894 217.073L343.432 213.535V220.611Z" fill="#2672F2"/>
<path d="M348.233 220.485L351.771 216.947L348.233 213.282V220.485Z" fill="#2672F2"/>
<path d="M335.219 227.814H460.44" stroke="#2672F2" stroke-linecap="square"/>
<rect x="335.85" y="198.12" width="127.622" height="159.212" rx="3" stroke="#3F77E6" stroke-width="2" stroke-linecap="round" stroke-linejoin="round"/>
<path d="M224.046 301.733H251.683C253.34 301.733 254.683 300.39 254.683 298.733V271.642C254.683 270.863 254.38 270.115 253.838 269.555L245.243 260.683C244.678 260.1 243.901 259.77 243.088 259.77H224.046C222.39 259.77 221.046 261.113 221.046 262.77V298.733C221.046 300.39 222.39 301.733 224.046 301.733Z" fill="#3F77E6" stroke="#3F77E6" stroke-width="2" stroke-linecap="round" stroke-linejoin="round"/>
<path d="M242.364 257.508V272.671H256.263" stroke="white" stroke-width="2"/>
<path d="M251.209 285.307H263.845L258.791 316.896C258.791 317.739 257.906 319.423 249.314 319.423" stroke="#9B9B9B" stroke-width="2"/>
<path d="M257.551 318.132C258.479 317.204 259.001 315.945 259.001 314.632V287.413C259.001 286.1 258.479 284.841 257.551 283.913C256.623 282.985 255.364 282.464 254.052 282.464H231.781L226.832 275.04H214.459C213.147 275.04 211.888 275.561 210.96 276.49C210.031 277.418 209.51 278.677 209.51 279.989V314.632C209.51 314.632 209.324 318.12 210.142 318.792C210.96 319.464 214.459 319.582 214.459 319.582H254.052C255.364 319.582 256.623 319.06 257.551 318.132Z" fill="white" stroke="#9B9B9B" stroke-width="2" stroke-linecap="round" stroke-linejoin="round"/>
<path d="M169.815 300.217L181.44 289.603L169.815 278.989V284.296L173.479 287.834H156.421V291.625H173.479L169.815 294.91V300.217Z" fill="#3F77E6"/>
<path d="M299.965 300.217L311.59 289.603L299.965 278.989V284.296L303.629 287.834H286.571V291.625H303.629L299.965 294.91V300.217Z" fill="#3F77E6"/>
</svg>
