<?xml version="1.0" encoding="UTF-8" standalone="no"?>
<!DOCTYPE svg PUBLIC "-//W3C//DTD SVG 1.1//EN" "http://www.w3.org/Graphics/SVG/1.1/DTD/svg11.dtd">
<svg version="1.1" xmlns="http://www.w3.org/2000/svg" xmlns:xlink="http://www.w3.org/1999/xlink" preserveAspectRatio="xMidYMid meet" viewBox="0 0 640 282" width="640" height="282"><defs><path d="M494.44 278.5C462.93 278.5 431.23 267.62 397.52 245.23C364.93 223.64 334.29 193.81 304.65 164.96C272.42 133.58 239.1 101.14 204.61 80.73C183.21 68.08 163.93 61.92 145.66 61.92C111.16 61.92 85.05 76.36 72.13 102.58C66.51 114.09 63.51 127.69 63.51 141.87C63.51 153.21 65.26 163.8 68.68 173.32C79.57 203.95 106.08 220.08 145.38 220.08C163.5 220.08 183 212.94 204.98 198.25C219.56 188.47 235.72 175.07 255.77 156.15C260.13 160.28 295 193.37 299.36 197.51C276.5 219.09 258.39 234.03 240.63 245.94C207.83 267.86 176.69 278.5 145.38 278.5C79.99 278.5 29.46 246.18 10.22 192.06C4.64 176.56 1.79 159.64 1.79 141.87C1.79 118.96 6.62 97.46 16.15 77.97C39.47 30.62 86.66 3.5 145.66 3.5C175.83 3.5 205.82 12.56 237.33 31.2C278.15 55.36 314.12 90.37 348.91 124.23C377.81 152.37 405.11 178.95 432.94 197.39C455.94 212.66 476.05 220.08 494.44 220.08C534.59 220.08 561.35 203.96 571.82 173.45C574.91 164.42 576.49 154.35 576.49 143.56C576.49 128.29 573.3 113.88 567.28 101.87C554.21 75.72 529.03 61.92 494.44 61.92C474.11 61.92 453.26 68.37 430.71 81.62C416.52 89.99 401.38 101.21 384.44 115.94C383.36 116.88 382.31 117.8 381.25 118.73C377.04 114.46 343.34 80.29 339.13 76.02C340.32 74.98 341.51 73.93 342.71 72.9C362.48 55.7 380.61 42.33 398.12 32.01C430.76 12.82 462.26 3.5 494.44 3.5C552.87 3.5 599.75 30.23 623.06 76.85C632.97 96.62 638.21 119.69 638.21 143.56C638.21 160.46 635.63 176.59 630.53 191.47C611.82 245.98 560.95 278.5 494.44 278.5" id="k2gKNsed7y"></path><path d="M200.36 92.2C188.56 82.85 176.1 78.17 162.98 78.17C149.86 78.17 137.39 82.84 125.59 92.2C113.79 101.55 104.4 113.93 97.41 129.33C96.42 131.69 95.92 134.01 95.92 136.3C95.92 138.58 96.42 140.9 97.41 143.26C104.4 158.66 113.79 171.04 125.59 180.39C137.39 189.75 149.86 194.42 162.98 194.42C176.1 194.42 188.56 189.76 200.36 180.44C212.16 171.13 221.56 158.73 228.54 143.26C229.54 140.9 230.04 138.58 230.04 136.3C230.04 134.01 229.54 131.69 228.54 129.33C221.55 113.93 212.16 101.55 200.36 92.2ZM162.98 92.7C163.97 92.7 164.82 93.17 165.52 94.11C166.22 95.06 166.57 96.2 166.57 97.55C166.57 98.89 166.22 100.03 165.52 100.98C164.83 101.92 163.98 102.39 162.98 102.39C158.69 102.39 155.02 104.44 151.98 108.54C148.93 112.65 147.41 117.59 147.41 123.38C147.41 124.73 147.06 125.87 146.36 126.81C145.66 127.75 144.82 128.22 143.82 128.22C142.82 128.22 141.97 127.75 141.27 126.81C140.57 125.87 140.22 124.72 140.22 123.38C140.22 114.97 142.46 107.75 146.92 101.73C151.39 95.71 156.74 92.7 162.98 92.7ZM162.98 181.51C151.3 181.51 140.46 177.42 130.46 169.25C120.45 161.07 112.13 150.09 105.5 136.3C113.08 120.42 122.59 108.54 134.01 100.67C130.97 107.67 129.45 115.24 129.45 123.38C129.45 135.83 132.73 146.47 139.29 155.32C145.85 164.16 153.75 168.59 162.98 168.59C172.21 168.59 180.1 164.16 186.67 155.32C193.23 146.47 196.51 135.83 196.51 123.38C196.51 115.24 194.99 107.67 191.94 100.67C203.37 108.54 212.87 120.42 220.46 136.3C213.82 150.09 205.5 161.07 195.5 169.25C185.49 177.42 174.65 181.51 162.98 181.51Z" id="c99pePW6y"></path><path d="M508.07 96.9C496.27 87.55 483.81 82.88 470.68 82.88C457.56 82.88 445.1 87.55 433.3 96.9C421.5 106.25 412.11 118.63 405.12 134.04C404.12 136.39 403.62 138.71 403.62 141C403.62 143.29 404.12 145.61 405.12 147.96C412.11 163.37 421.5 175.75 433.3 185.1C445.1 194.45 457.56 199.12 470.68 199.12C483.81 199.12 496.27 194.47 508.07 185.15C519.87 175.83 529.26 163.44 536.25 147.96C537.24 145.61 537.74 143.29 537.74 141C537.74 138.71 537.24 136.39 536.25 134.04C529.26 118.63 519.87 106.25 508.07 96.9ZM470.68 97.41C471.68 97.41 472.53 97.88 473.23 98.82C473.93 99.76 474.28 100.91 474.28 102.25C474.28 103.6 473.93 104.74 473.23 105.68C472.53 106.62 471.68 107.09 470.68 107.09C466.39 107.09 462.73 109.15 459.68 113.25C456.64 117.36 455.12 122.3 455.12 128.08C455.12 129.43 454.77 130.57 454.07 131.52C453.37 132.46 452.52 132.93 451.52 132.93C450.53 132.93 449.68 132.46 448.98 131.52C448.28 130.57 447.93 129.43 447.93 128.08C447.93 119.68 450.16 112.46 454.63 106.44C459.09 100.42 464.45 97.41 470.68 97.41ZM470.68 186.21C459.01 186.21 448.17 182.13 438.16 173.95C428.16 165.78 419.84 154.79 413.2 141C420.79 125.12 430.29 113.25 441.72 105.38C438.68 112.38 437.15 119.94 437.15 128.08C437.15 140.53 440.44 151.17 447 160.02C453.56 168.87 461.45 173.29 470.68 173.29C479.91 173.29 487.81 168.87 494.37 160.02C500.93 151.18 504.21 140.53 504.21 128.08C504.21 119.94 502.69 112.37 499.65 105.38C511.07 113.25 520.58 125.13 528.16 141C521.53 154.79 513.21 165.78 503.2 173.95C493.2 182.12 482.36 186.21 470.68 186.21Z" id="eZTHQL7H"></path></defs><g><g><g><use xlink:href="#k2gKNsed7y" opacity="1" fill="#dd671a" fill-opacity="1"></use><g><use xlink:href="#k2gKNsed7y" opacity="1" fill-opacity="0" stroke="#000000" stroke-width="1" stroke-opacity="0"></use></g></g><g><use xlink:href="#c99pePW6y" opacity="1" fill="#000000" fill-opacity="1"></use><g><use xlink:href="#c99pePW6y" opacity="1" fill-opacity="0" stroke="#000000" stroke-width="1" stroke-opacity="0"></use></g></g><g><use xlink:href="#eZTHQL7H" opacity="1" fill="#000000" fill-opacity="1"></use><g><use xlink:href="#eZTHQL7H" opacity="1" fill-opacity="0" stroke="#000000" stroke-width="1" stroke-opacity="0"></use></g></g></g></g></svg>